<?xml version="1.0" encoding="UTF-8" standalone="no"?>
<!DOCTYPE svg PUBLIC "-//W3C//DTD SVG 1.1//EN" "http://www.w3.org/Graphics/SVG/1.1/DTD/svg11.dtd">
<svg width="100%" height="100%" viewBox="0 0 608 711" version="1.1" xmlns="http://www.w3.org/2000/svg" xmlns:xlink="http://www.w3.org/1999/xlink" xml:space="preserve" xmlns:serif="http://www.serif.com/" style="fill-rule:evenodd;clip-rule:evenodd;stroke-linejoin:round;stroke-miterlimit:2;">
<path d="M117.645,611.312c-8.94,-7.819 -24.287,-22.297 -38.006,-40.019c-62.916,-70.584 -134.769,-255.697 -15.203,-423.61c49.353,-69.24 120.159,-115.831 190.478,-134.731c164.038,-44.072 290.081,33.444 347.772,95.897c6.422,6.963 5.516,15.831 0.628,19.925c-7.159,6.016 -13.6,2.891 -28.028,-1.297c-22.478,-6.522 -41.831,-8.062 -62.634,-5.412c-48.194,6.15 -89.935,50.837 -84.141,113.253c5.284,56.994 49.212,98.147 80.075,125.337c108.375,95.441 72.122,197.738 63.294,220.216c-29.972,76.3 -106.763,130.109 -206.329,130.109c-41.349,0 -101.099,-10.721 -161.149,-48.793c-2.325,-1.028 -4.61,-4.138 -1.779,-9.254c4.585,-11.603 23.763,-45.446 32.044,-55.218c29.834,34.506 80.206,66.965 136.163,69.012c76.484,2.797 125.772,-38.603 143.843,-91.137c20.307,-59.019 -1.281,-119.172 -58.453,-173.456c-49.275,-46.785 -93.225,-90.094 -95.797,-164.313c-3.262,-95.066 79.519,-151.531 156.416,-147.756c2.344,0.119 -106.316,-78.269 -245.781,-31.591c-68.263,22.891 -109.119,63.172 -128.731,86.088c-2.91,3.562 -1.066,6.256 -0.072,7.681c2.184,3.119 49.572,69.238 49.572,69.238l-85.497,-19.66c-0,0 -3.566,-0.856 -5.328,2.056c-27.185,46.869 -67.238,182.372 22.203,305.804c-0,-0 76.172,-120.673 227.453,-130.951c10.059,-0.678 8.784,2.922 2.175,5.319c-135.128,49.66 -188.447,148.76 -222.891,225.181c-2.115,4.728 -7.725,6.122 -12.297,2.082Z" style="fill:#00477f;fill-rule:nonzero;"/>
</svg>